<svg width="25" height="24" viewBox="0 0 25 24" fill="none" xmlns="http://www.w3.org/2000/svg">
<path d="M18.1814 20.2194H7.27635C7.06423 20.2212 6.85592 20.163 6.67544 20.0516C6.49496 19.9401 6.34968 19.7799 6.25635 19.5894L5.79135 18.6594H4.15635C4.00539 18.6614 3.85553 18.6333 3.71548 18.5769C3.57544 18.5205 3.44799 18.4369 3.34054 18.3308C3.23308 18.2248 3.14777 18.0984 3.08954 17.9591C3.03132 17.8198 3.00134 17.6704 3.00135 17.5194V14.8194H1.50135V16.7544C1.50135 16.9533 1.42233 17.1441 1.28168 17.2847C1.14103 17.4254 0.950264 17.5044 0.751351 17.5044C0.552439 17.5044 0.361674 17.4254 0.221021 17.2847C0.080369 17.1441 0.00135134 16.9533 0.00135134 16.7544V11.2944C-0.00479254 11.1922 0.0100582 11.0898 0.0449886 10.9935C0.079919 10.8973 0.134189 10.8092 0.204455 10.7347C0.274721 10.6602 0.359494 10.6009 0.453551 10.5604C0.547608 10.52 0.648956 10.4992 0.751351 10.4994C0.950264 10.4994 1.14103 10.5784 1.28168 10.719C1.42233 10.8597 1.50135 11.0505 1.50135 11.2494V13.2894H3.00135V10.4994C3.00135 10.197 3.12146 9.90706 3.33525 9.69327C3.54904 9.47948 3.839 9.35937 4.14135 9.35937H4.56135V8.99937C4.56135 8.69703 4.68146 8.40706 4.89525 8.19327C5.10904 7.97948 5.399 7.85937 5.70135 7.85937H8.70135V5.27937H5.70135C5.70135 5.27937 4.92135 5.17437 4.92135 4.49937C4.92101 4.30405 4.99541 4.11599 5.12928 3.97375C5.26315 3.83151 5.44636 3.74586 5.64135 3.73438H13.5014C13.7003 3.73438 13.891 3.81339 14.0317 3.95405C14.1723 4.0947 14.2514 4.28546 14.2514 4.48438C14.2514 4.68329 14.1723 4.87405 14.0317 5.0147C13.891 5.15536 13.7003 5.23438 13.5014 5.23438H10.2764V7.79937H13.5014C13.6562 7.79916 13.8096 7.83051 13.9519 7.89152C14.0943 7.95252 14.2227 8.0419 14.3294 8.1542C14.4361 8.2665 14.5188 8.39936 14.5724 8.54467C14.6261 8.68998 14.6495 8.8447 14.6414 8.99937V9.41938H16.6214C16.8222 9.41734 17.02 9.46913 17.1941 9.56937C17.3682 9.6696 17.5123 9.81463 17.6114 9.98938L18.8414 12.1494H20.1314V10.4994C20.1314 10.197 20.2515 9.90706 20.4653 9.69327C20.679 9.47948 20.969 9.35937 21.2714 9.35937H22.8614C23.1637 9.35937 23.4537 9.47948 23.6675 9.69327C23.8812 9.90706 24.0014 10.197 24.0014 10.4994V18.2994C24.0014 18.6017 23.8812 18.8917 23.6675 19.1055C23.4537 19.3193 23.1637 19.4394 22.8614 19.4394H21.2714C20.969 19.4394 20.679 19.3193 20.4653 19.1055C20.2515 18.8917 20.1314 18.6017 20.1314 18.2994V16.7094H19.3214V19.0794C19.3214 19.3817 19.2012 19.6717 18.9875 19.8855C18.7737 20.0993 18.4837 20.2194 18.1814 20.2194ZM7.50135 18.7194H17.8214V15.9594C17.8252 15.7617 17.9054 15.5731 18.0453 15.4333C18.1851 15.2935 18.3736 15.2132 18.5714 15.2094H20.8814C21.0803 15.2094 21.271 15.2884 21.4117 15.429C21.5523 15.5697 21.6314 15.7605 21.6314 15.9594V17.9994H22.5014V10.8744H21.6314V12.8544C21.6314 13.0533 21.5523 13.2441 21.4117 13.3847C21.271 13.5254 21.0803 13.6044 20.8814 13.6044H18.4064C18.2736 13.6037 18.1436 13.567 18.0301 13.4984C17.9165 13.4297 17.8236 13.3316 17.7614 13.2144L16.4114 10.8744H13.8914C13.6936 10.8705 13.5051 10.7903 13.3653 10.6505C13.2254 10.5106 13.1452 10.3221 13.1414 10.1244V9.31437H6.07635V10.1394C6.07635 10.3383 5.99733 10.5291 5.85668 10.6697C5.71603 10.8104 5.52526 10.8894 5.32635 10.8894H4.50135V17.1744H6.25635C6.39655 17.1758 6.53365 17.2157 6.65269 17.2898C6.77173 17.3639 6.86813 17.4692 6.93135 17.5944L7.50135 18.7194Z" fill="#56586A"/>
</svg>
