<svg width="24" height="24" viewBox="0 0 24 24" fill="none" xmlns="http://www.w3.org/2000/svg">
<path d="M22.0004 12.1039C22.0004 14.0818 21.4138 16.0153 20.315 17.6599C19.2161 19.3044 17.6543 20.5862 15.8269 21.3431C13.9996 22.1 11.9888 22.2981 10.049 21.9122C8.10906 21.5263 6.32716 20.5739 4.92857 19.1753C3.52999 17.7767 2.57754 15.9948 2.19167 14.0549C1.8058 12.115 2.00384 10.1043 2.76075 8.27694C3.51766 6.4496 4.79944 4.88775 6.444 3.78889C8.08856 2.69003 10.022 2.10352 11.9999 2.10352C13.3132 2.10352 14.6136 2.36218 15.8269 2.86475C17.0402 3.36732 18.1427 4.10395 19.0713 5.03257C19.9999 5.9612 20.7366 7.06363 21.2391 8.27694C21.7417 9.49025 22.0004 10.7907 22.0004 12.1039ZM12.9663 12.589C12.8482 12.4198 12.7482 12.2385 12.6681 12.0484C12.6216 11.9385 12.582 11.8259 12.5494 11.7111H7.77215C7.02244 11.7134 6.30411 12.0123 5.77398 12.5424C5.24386 13.0725 4.94501 13.7909 4.94267 14.5406V16.2395C4.94367 16.5394 5.06324 16.8267 5.27527 17.0387C5.48731 17.2507 5.7746 17.3703 6.07446 17.3713H10.9086C10.787 17.1295 10.7238 16.8626 10.7241 16.5919V15.4223C10.7257 14.8503 10.895 14.2913 11.2112 13.8146C11.5273 13.338 11.9764 12.9645 12.5027 12.7406C12.6526 12.6768 12.8077 12.6261 12.9663 12.589ZM10.3199 10.8623C10.892 10.8623 11.4513 10.6926 11.927 10.3748C12.4027 10.0569 12.7734 9.60514 12.9924 9.07658C13.2113 8.54802 13.2686 7.96641 13.157 7.4053C13.0454 6.84418 12.7699 6.32876 12.3653 5.92422C11.9608 5.51968 11.4454 5.24418 10.8843 5.13257C10.3231 5.02096 9.74153 5.07824 9.21298 5.29718C8.68442 5.51611 8.23265 5.88687 7.9148 6.36256C7.59696 6.83825 7.42731 7.39751 7.42731 7.96962C7.42731 8.73679 7.73206 9.47255 8.27454 10.015C8.81701 10.5575 9.55276 10.8623 10.3199 10.8623ZM17.1435 13.4745H13.637C13.1207 13.4758 12.6259 13.6814 12.2607 14.0464C11.8955 14.4113 11.6896 14.906 11.6879 15.4223V16.5919C11.6886 16.7984 11.7709 16.9963 11.9169 17.1423C12.063 17.2883 12.2608 17.3706 12.4673 17.3713H18.3132C18.5197 17.3706 18.7175 17.2883 18.8636 17.1423C19.0096 16.9963 19.0919 16.7984 19.0926 16.5919V15.4223C19.0909 14.906 18.885 14.4113 18.5198 14.0464C18.1546 13.6814 17.6598 13.4758 17.1435 13.4745ZM15.3903 12.8896C15.7839 12.8896 16.1688 12.7729 16.4961 12.5542C16.8235 12.3355 17.0786 12.0247 17.2293 11.661C17.38 11.2973 17.4195 10.8971 17.3428 10.511C17.2661 10.1248 17.0766 9.77013 16.7984 9.49167C16.5201 9.21321 16.1655 9.02351 15.7794 8.94655C15.3933 8.8696 14.9931 8.90884 14.6293 9.05932C14.2655 9.2098 13.9545 9.46476 13.7356 9.79197C13.5167 10.1192 13.3998 10.5039 13.3995 10.8976C13.3994 11.1592 13.4507 11.4182 13.5507 11.6598C13.6507 11.9015 13.7973 12.1211 13.9821 12.3061C14.167 12.4911 14.3865 12.6378 14.6281 12.738C14.8698 12.8381 15.1287 12.8896 15.3903 12.8896Z" fill="#444444"/>
</svg>
