<svg width="74" height="13" viewBox="0 0 74 13" fill="none" xmlns="http://www.w3.org/2000/svg">
<g clip-path="url(#clip0_1_35620)">
<path d="M6.50044 10.4303L2.48317 12.6789L3.38023 8.16381L0 5.03764L4.57198 4.49485L6.50044 0.315068L8.42891 4.49539L13.0009 5.03764L9.62065 8.16327L10.5177 12.6789L6.50044 10.4303ZM6.50044 9.12479L8.91915 10.479L8.37907 7.76024L10.4137 5.87782L7.66131 5.55171L6.50044 3.03442L5.33957 5.55226L2.58718 5.87782L4.62181 7.76024L4.08174 10.479L6.50044 9.12479Z" fill="#E1B64C"/>
</g>
<g clip-path="url(#clip1_1_35620)">
<path d="M6.50044 10.4303L2.48317 12.6789L3.38023 8.16381L0 5.03764L4.57198 4.49485L6.50044 0.315068L8.42891 4.49539L13.0009 5.03764L9.62065 8.16327L10.5177 12.6789L6.50044 10.4303Z" fill="#E1B64C"/>
</g>
<g clip-path="url(#clip2_1_35620)">
<path d="M21.6717 10.4303L17.6544 12.6789L18.5515 8.16381L15.1712 5.03764L19.7432 4.49485L21.6717 0.315068L23.6001 4.49539L28.1721 5.03764L24.7919 8.16327L25.6889 12.6789L21.6717 10.4303ZM21.6717 9.12479L24.0904 10.479L23.5503 7.76024L25.5849 5.87782L22.8325 5.55171L21.6717 3.03442L20.5108 5.55226L17.7584 5.87782L19.793 7.76024L19.253 10.479L21.6717 9.12479Z" fill="#E1B64C"/>
</g>
<g clip-path="url(#clip3_1_35620)">
<path d="M21.6717 10.4303L17.6544 12.6789L18.5515 8.16381L15.1712 5.03764L19.7432 4.49485L21.6717 0.315068L23.6001 4.49539L28.1721 5.03764L24.7919 8.16327L25.6889 12.6789L21.6717 10.4303Z" fill="#E1B64C"/>
</g>
<g clip-path="url(#clip4_1_35620)">
<path d="M36.8351 10.4303L32.8178 12.6789L33.7149 8.16381L30.3346 5.03764L34.9066 4.49485L36.8351 0.315068L38.7635 4.49539L43.3355 5.03764L39.9553 8.16327L40.8524 12.6789L36.8351 10.4303ZM36.8351 9.12479L39.2538 10.479L38.7137 7.76024L40.7483 5.87782L37.9959 5.55171L36.8351 3.03442L35.6742 5.55226L32.9218 5.87782L34.9565 7.76024L34.4164 10.479L36.8351 9.12479Z" fill="#E1B64C"/>
</g>
<g clip-path="url(#clip5_1_35620)">
<path d="M36.8351 10.4303L32.8178 12.6789L33.7149 8.16381L30.3346 5.03764L34.9066 4.49485L36.8351 0.315068L38.7635 4.49539L43.3355 5.03764L39.9553 8.16327L40.8524 12.6789L36.8351 10.4303Z" fill="#E1B64C"/>
</g>
<g clip-path="url(#clip6_1_35620)">
<path d="M52.0034 10.4303L47.9861 12.6789L48.8832 8.16381L45.5029 5.03764L50.0749 4.49485L52.0034 0.315068L53.9318 4.49539L58.5038 5.03764L55.1236 8.16327L56.0206 12.6789L52.0034 10.4303ZM52.0034 9.12479L54.4221 10.479L53.882 7.76024L55.9166 5.87782L53.1642 5.55171L52.0034 3.03442L50.8425 5.55226L48.0901 5.87782L50.1247 7.76024L49.5847 10.479L52.0034 9.12479Z" fill="#E1B64C"/>
</g>
<g clip-path="url(#clip7_1_35620)">
<path d="M52.0034 10.4303L47.9861 12.6789L48.8832 8.16381L45.5029 5.03764L50.0749 4.49485L52.0034 0.315068L53.9318 4.49539L58.5038 5.03764L55.1236 8.16327L56.0206 12.6789L52.0034 10.4303Z" fill="#E1B64C"/>
</g>
<g clip-path="url(#clip8_1_35620)">
<path d="M67.1668 10.4303L63.1495 12.6789L64.0466 8.16381L60.6663 5.03764L65.2383 4.49485L67.1668 0.315068L69.0952 4.49539L73.6672 5.03764L70.287 8.16327L71.1841 12.6789L67.1668 10.4303ZM67.1668 9.12479L69.5855 10.479L69.0454 7.76024L71.08 5.87782L68.3277 5.55171L67.1668 3.03442L66.0059 5.55226L63.2535 5.87782L65.2882 7.76024L64.7481 10.479L67.1668 9.12479Z" fill="#E1B64C"/>
</g>
<g clip-path="url(#clip9_1_35620)">
<path d="M67.1668 10.4303L63.1495 12.6789L64.0466 8.16381L60.6663 5.03764L65.2383 4.49485L67.1668 0.315068L69.0952 4.49539L73.6672 5.03764L70.287 8.16327L71.1841 12.6789L67.1668 10.4303Z" fill="#E1B64C"/>
</g>
<defs>
<clipPath id="clip0_1_35620">
<rect width="12.9755" height="12.9755" fill="white" transform="scale(1.00196)"/>
</clipPath>
<clipPath id="clip1_1_35620">
<rect width="12.9755" height="12.9755" fill="white" transform="scale(1.00196)"/>
</clipPath>
<clipPath id="clip2_1_35620">
<rect width="12.9755" height="12.9755" fill="white" transform="translate(15.1712) scale(1.00196)"/>
</clipPath>
<clipPath id="clip3_1_35620">
<rect width="12.9755" height="12.9755" fill="white" transform="translate(15.1712) scale(1.00196)"/>
</clipPath>
<clipPath id="clip4_1_35620">
<rect width="12.9755" height="12.9755" fill="white" transform="translate(30.3346) scale(1.00196)"/>
</clipPath>
<clipPath id="clip5_1_35620">
<rect width="12.9755" height="12.9755" fill="white" transform="translate(30.3346) scale(1.00196)"/>
</clipPath>
<clipPath id="clip6_1_35620">
<rect width="12.9755" height="12.9755" fill="white" transform="translate(45.5029) scale(1.00196)"/>
</clipPath>
<clipPath id="clip7_1_35620">
<rect width="12.9755" height="12.9755" fill="white" transform="translate(45.5029) scale(1.00196)"/>
</clipPath>
<clipPath id="clip8_1_35620">
<rect width="12.9755" height="12.9755" fill="white" transform="translate(60.6663) scale(1.00196)"/>
</clipPath>
<clipPath id="clip9_1_35620">
<rect width="12.9755" height="12.9755" fill="white" transform="translate(60.6663) scale(1.00196)"/>
</clipPath>
</defs>
</svg>
