<svg width="24" height="24" viewBox="0 0 24 24" fill="none" xmlns="http://www.w3.org/2000/svg">
<path d="M12.2404 21.3398C12.638 21.3398 12.9604 21.0173 12.9604 20.6198V3.35969C12.9604 2.96214 12.638 2.63969 12.2404 2.63969H3.35969C2.96214 2.63969 2.63969 2.96214 2.63969 3.35969V20.6198C2.63969 21.0173 2.96214 21.3398 3.35969 21.3398H12.2404ZM12.2404 22.2998H3.35969C2.43196 22.2998 1.67969 21.5475 1.67969 20.6198V3.35969C1.67969 2.43196 2.43196 1.67969 3.35969 1.67969H12.2404C13.1681 1.67969 13.9204 2.43196 13.9204 3.35969V20.6198C13.9204 21.5475 13.1681 22.2998 12.2404 22.2998ZM21.3487 6.40799V18.133C21.3487 19.291 20.4099 20.2298 19.2518 20.2298C18.093 20.2298 17.1542 19.2911 17.1542 18.133C17.1542 17.8679 16.9393 17.653 16.6742 17.653C16.4091 17.653 16.1942 17.8679 16.1942 18.133C16.1942 19.8213 17.5628 21.1898 19.2511 21.1898C20.9401 21.1898 22.3087 19.8213 22.3087 18.133V6.40799C22.3087 6.14289 22.0938 5.92799 21.8287 5.92799C21.5636 5.92799 21.3487 6.14289 21.3487 6.40799Z" fill="black"/>
<path d="M17.1543 18.268V8.64016C17.1543 8.37505 16.9394 8.16016 16.6743 8.16016C16.4092 8.16016 16.1943 8.37505 16.1943 8.64016V18.268C16.1943 18.5331 16.4092 18.748 16.6743 18.748C16.9394 18.748 17.1543 18.5331 17.1543 18.268Z" fill="black"/>
<path d="M17.1547 8.5663V7.75773C17.1547 6.59959 16.216 5.66085 15.0579 5.66085C13.8997 5.66085 12.9607 6.59961 12.9607 7.75773V8.5663C12.9607 8.8314 13.1756 9.0463 13.4407 9.0463C13.7058 9.0463 13.9207 8.8314 13.9207 8.5663V7.75773C13.9207 7.12986 14.4298 6.62085 15.0579 6.62085C15.6858 6.62085 16.1947 7.12979 16.1947 7.75773V8.5663C16.1947 8.8314 16.4096 9.0463 16.6747 9.0463C16.9398 9.0463 17.1547 8.8314 17.1547 8.5663ZM22.0897 5.97571L17.9948 1.88082C17.8073 1.69337 17.5034 1.69337 17.316 1.88082C17.1285 2.06828 17.1285 2.37219 17.316 2.55964L21.4108 6.65453C21.5983 6.84198 21.9022 6.84198 22.0897 6.65453C22.2771 6.46707 22.2771 6.16316 22.0897 5.97571ZM10.2851 6.59771C10.4177 6.59771 10.5251 6.4903 10.5251 6.35771V5.27771C10.5251 5.14513 10.4177 5.03771 10.2851 5.03771H5.28594C5.25442 5.03771 5.22321 5.04391 5.19409 5.05597C5.16497 5.06803 5.13851 5.08571 5.11622 5.108C5.09393 5.13028 5.07625 5.15674 5.06419 5.18586C5.05213 5.21498 5.04593 5.2462 5.04594 5.27771V6.35771C5.04594 6.4903 5.15335 6.59771 5.28594 6.59771H10.2851ZM10.2851 7.55771H5.28594C4.62317 7.55771 4.08594 7.02048 4.08594 6.35771V5.27771C4.08594 4.61495 4.62317 4.07771 5.28594 4.07771H10.2851C10.9479 4.07771 11.4851 4.61495 11.4851 5.27771V6.35771C11.4851 7.02048 10.9479 7.55771 10.2851 7.55771Z" fill="black"/>
<path d="M21.7725 8.40948H20.6246C20.3595 8.40948 20.1446 8.19453 20.1446 7.92948V4.47805C20.1446 4.21295 19.9297 3.99805 19.6646 3.99805C19.3995 3.99805 19.1846 4.21295 19.1846 4.47805V7.92948C19.1846 8.72473 19.8293 9.36948 20.6246 9.36948H21.7725C22.0376 9.36948 22.2525 9.15458 22.2525 8.88948C22.2525 8.62437 22.0376 8.40948 21.7725 8.40948Z" fill="black"/>
</svg>
