<svg width="48" height="48" viewBox="0 0 48 48" fill="none" xmlns="http://www.w3.org/2000/svg">
<rect width="48" height="48" rx="4" fill="#DD2230"/>
<path d="M40.0009 24C40.0009 24.6795 39.9585 25.3489 39.8763 26.0058C39.7831 26.7496 39.6392 27.4778 39.4476 28.1864C38.2279 32.6979 35.0842 36.4194 30.9514 38.4159C30.7587 38.5091 30.5638 38.5984 30.3665 38.684L26.0541 34.3714C26.5256 34.2785 26.9859 34.1543 27.4327 34.0009C30.3338 33.0057 32.6651 30.7832 33.8066 27.9535C30.9071 28.2064 28.1701 29.0267 25.7074 30.3031C25.1718 30.5806 24.5859 30.7195 24 30.7195C23.4141 30.7195 22.8284 30.5808 22.2926 30.3033C19.8299 29.0269 17.0927 28.2066 14.193 27.9537C15.3349 30.7834 17.6662 33.0059 20.5673 34.0011C21.0133 34.1543 21.4723 34.2782 21.943 34.3712L17.6312 38.6832C17.4348 38.598 17.2406 38.5091 17.0486 38.4161C12.9158 36.4196 9.77229 32.6984 8.5524 28.1868C8.36081 27.4782 8.21686 26.75 8.1237 26.006C8.04151 25.3489 7.99915 24.6795 7.99915 24.0002C7.99915 17.4267 11.9632 11.7792 17.631 9.31746L21.943 13.6294C17.8211 14.4424 14.5595 17.6514 13.6703 21.7455C16.7447 20.0887 20.2626 19.1483 23.9998 19.1483C27.7372 19.1483 31.2551 20.0885 34.3297 21.7457C33.44 17.6508 30.177 14.4411 26.0537 13.629L30.3663 9.31641C36.036 11.7775 40.0009 17.4259 40.0009 24Z" fill="white"/>
</svg>
