<svg width="88" height="16" viewBox="0 0 88 16" fill="none" xmlns="http://www.w3.org/2000/svg">
<g clip-path="url(#clip0_1_33756)">
<path d="M8 12.8393L3.056 15.6066L4.16 10.05L0 6.20262L5.62667 5.53463L8 0.390625L10.3733 5.53529L16 6.20262L11.84 10.0493L12.944 15.6066L8 12.8393ZM8 11.2326L10.9767 12.8993L10.312 9.55329L12.816 7.23663L9.42867 6.83529L8 3.73729L6.57133 6.83596L3.184 7.23663L5.688 9.55329L5.02333 12.8993L8 11.2326Z" fill="#E1B64C"/>
</g>
<g clip-path="url(#clip1_1_33756)">
<path d="M8 12.8393L3.056 15.6066L4.16 10.05L0 6.20262L5.62667 5.53463L8 0.390625L10.3733 5.53529L16 6.20262L11.84 10.0493L12.944 15.6066L8 12.8393Z" fill="#E1B64C"/>
</g>
<g clip-path="url(#clip2_1_33756)">
<path d="M26 12.8393L21.056 15.6066L22.16 10.05L18 6.20262L23.6267 5.53463L26 0.390625L28.3733 5.53529L34 6.20262L29.84 10.0493L30.944 15.6066L26 12.8393ZM26 11.2326L28.9767 12.8993L28.312 9.55329L30.816 7.23663L27.4287 6.83529L26 3.73729L24.5713 6.83596L21.184 7.23663L23.688 9.55329L23.0233 12.8993L26 11.2326Z" fill="#E1B64C"/>
</g>
<g clip-path="url(#clip3_1_33756)">
<path d="M26 12.8393L21.056 15.6066L22.16 10.05L18 6.20262L23.6267 5.53463L26 0.390625L28.3733 5.53529L34 6.20262L29.84 10.0493L30.944 15.6066L26 12.8393Z" fill="#E1B64C"/>
</g>
<g clip-path="url(#clip4_1_33756)">
<path d="M44 12.8393L39.056 15.6066L40.16 10.05L36 6.20262L41.6267 5.53463L44 0.390625L46.3733 5.53529L52 6.20262L47.84 10.0493L48.944 15.6066L44 12.8393ZM44 11.2326L46.9767 12.8993L46.312 9.55329L48.816 7.23663L45.4287 6.83529L44 3.73729L42.5713 6.83596L39.184 7.23663L41.688 9.55329L41.0233 12.8993L44 11.2326Z" fill="#E1B64C"/>
</g>
<g clip-path="url(#clip5_1_33756)">
<path d="M44 12.8393L39.056 15.6066L40.16 10.05L36 6.20262L41.6267 5.53463L44 0.390625L46.3733 5.53529L52 6.20262L47.84 10.0493L48.944 15.6066L44 12.8393Z" fill="#E1B64C"/>
</g>
<g clip-path="url(#clip6_1_33756)">
<path d="M62 12.8393L57.056 15.6066L58.16 10.05L54 6.20262L59.6267 5.53463L62 0.390625L64.3733 5.53529L70 6.20262L65.84 10.0493L66.944 15.6066L62 12.8393ZM62 11.2326L64.9767 12.8993L64.312 9.55329L66.816 7.23663L63.4287 6.83529L62 3.73729L60.5713 6.83596L57.184 7.23663L59.688 9.55329L59.0233 12.8993L62 11.2326Z" fill="#E1B64C"/>
</g>
<g clip-path="url(#clip7_1_33756)">
<path d="M62 12.8393L57.056 15.6066L58.16 10.05L54 6.20262L59.6267 5.53463L62 0.390625L64.3733 5.53529L70 6.20262L65.84 10.0493L66.944 15.6066L62 12.8393Z" fill="#E1B64C"/>
</g>
<g clip-path="url(#clip8_1_33756)">
<path d="M80 12.8393L75.056 15.6066L76.16 10.05L72 6.20262L77.6267 5.53463L80 0.390625L82.3733 5.53529L88 6.20262L83.84 10.0493L84.944 15.6066L80 12.8393ZM80 11.2326L82.9767 12.8993L82.312 9.55329L84.816 7.23663L81.4287 6.83529L80 3.73729L78.5713 6.83596L75.184 7.23663L77.688 9.55329L77.0233 12.8993L80 11.2326Z" fill="#E1B64C"/>
</g>
<g clip-path="url(#clip9_1_33756)">
<path d="M80 12.8393L75.056 15.6066L76.16 10.05L72 6.20262L77.6267 5.53463L80 0.390625L82.3733 5.53529L88 6.20262L83.84 10.0493L84.944 15.6066L80 12.8393Z" fill="#E1B64C"/>
</g>
<defs>
<clipPath id="clip0_1_33756">
<rect width="16" height="16" fill="white"/>
</clipPath>
<clipPath id="clip1_1_33756">
<rect width="16" height="16" fill="white"/>
</clipPath>
<clipPath id="clip2_1_33756">
<rect width="16" height="16" fill="white" transform="translate(18)"/>
</clipPath>
<clipPath id="clip3_1_33756">
<rect width="16" height="16" fill="white" transform="translate(18)"/>
</clipPath>
<clipPath id="clip4_1_33756">
<rect width="16" height="16" fill="white" transform="translate(36)"/>
</clipPath>
<clipPath id="clip5_1_33756">
<rect width="16" height="16" fill="white" transform="translate(36)"/>
</clipPath>
<clipPath id="clip6_1_33756">
<rect width="16" height="16" fill="white" transform="translate(54)"/>
</clipPath>
<clipPath id="clip7_1_33756">
<rect width="16" height="16" fill="white" transform="translate(54)"/>
</clipPath>
<clipPath id="clip8_1_33756">
<rect width="16" height="16" fill="white" transform="translate(72)"/>
</clipPath>
<clipPath id="clip9_1_33756">
<rect width="16" height="16" fill="white" transform="translate(72)"/>
</clipPath>
</defs>
</svg>
