<svg width="24" height="24" viewBox="0 0 24 24" fill="none" xmlns="http://www.w3.org/2000/svg">
<path d="M19.4999 23.4158H17.0399C16.9706 23.4168 16.9017 23.404 16.8374 23.3783C16.773 23.3525 16.7144 23.3143 16.6649 23.2658C16.591 23.1718 16.5351 23.065 16.4999 22.9508L16.3499 22.5458C16.3427 22.486 16.3427 22.4256 16.3499 22.3658V21.8108H8.05488V22.3658C8.06949 22.4249 8.06949 22.4867 8.05488 22.5458L7.94988 22.8758C7.86928 23.0409 7.75717 23.1887 7.61988 23.3108C7.51881 23.3812 7.39807 23.418 7.27488 23.4158H4.63488C4.35038 23.4474 4.06439 23.3709 3.83373 23.2014C3.60307 23.0318 3.44462 22.7817 3.38988 22.5008V16.5008C3.39045 16.3495 3.44959 16.2044 3.55488 16.0958C3.65229 16.0147 3.72072 15.9041 3.74988 15.7808H3.44988C3.3481 15.7795 3.24852 15.751 3.16147 15.6983C3.07442 15.6455 3.00309 15.5704 2.95488 15.4808C2.76352 15.1417 2.66037 14.7601 2.65488 14.3708C2.65215 14.0713 2.71352 13.7746 2.83488 13.5008L3.31488 12.8108L3.43488 12.6908C3.77923 12.475 4.18558 12.38 4.58988 12.4208H4.67988C4.99463 11.4132 5.40657 10.4386 5.90988 9.51077C6.02031 9.29986 6.15634 9.10337 6.31488 8.92577L6.40488 8.85077H6.59988C7.36039 8.47206 8.16726 8.1947 8.99988 8.02577C11.0833 7.79195 13.1864 7.79195 15.2699 8.02577C16.0717 8.12024 16.8551 8.33253 17.5949 8.65577C17.6656 8.69197 17.7311 8.73736 17.7899 8.79077C17.9787 8.98484 18.1357 9.2076 18.2549 9.45077C18.7628 10.3783 19.1798 11.3529 19.4999 12.3608C19.8741 12.3362 20.2451 12.4423 20.5499 12.6608L20.6549 12.7808L21.0449 13.3658C21.1875 13.6873 21.264 14.0341 21.2699 14.3858C21.2693 14.7576 21.1765 15.1235 20.9999 15.4508C20.953 15.5415 20.8819 15.6175 20.7946 15.6704C20.7073 15.7233 20.607 15.7511 20.5049 15.7508H20.2649C20.2976 15.8781 20.3592 15.9961 20.4449 16.0958C20.4934 16.1453 20.5316 16.2039 20.5574 16.2683C20.5831 16.3326 20.5959 16.4015 20.5949 16.4708V22.4708C20.5584 22.7345 20.4272 22.9759 20.2256 23.1498C20.0241 23.3237 19.7661 23.4183 19.4999 23.4158ZM17.3849 22.2908H19.4999V16.6508C19.2989 16.3617 19.175 16.0261 19.1399 15.6758V15.1508C19.1438 15.0062 19.204 14.8688 19.3076 14.768C19.4113 14.6671 19.5502 14.6107 19.6949 14.6108H20.1449C20.1523 14.5209 20.1523 14.4306 20.1449 14.3408C20.1445 14.1799 20.1086 14.0212 20.0399 13.8758L19.8599 13.5008C19.7406 13.4817 19.6191 13.4817 19.4999 13.5008H19.1399C19.0008 13.5331 18.8546 13.5107 18.7317 13.438C18.6088 13.3654 18.5186 13.2482 18.4799 13.1108C18.1929 12.035 17.8011 10.99 17.3099 9.99077C17.2491 9.86562 17.1789 9.74527 17.0999 9.63077C16.479 9.38289 15.8286 9.21651 15.1649 9.13577C14.1899 9.07577 13.1999 9.00077 12.2999 9.00077H11.3849C10.6949 9.00077 9.97488 9.00077 9.20988 9.12077C8.48685 9.20462 7.77666 9.37587 7.09488 9.63077C7.01686 9.73546 6.94667 9.84576 6.88488 9.96077C6.34527 10.9502 5.91763 11.9966 5.60988 13.0808C5.57768 13.2146 5.49693 13.3316 5.38328 13.4092C5.26964 13.4868 5.13122 13.5195 4.99488 13.5008H4.49988C4.37182 13.469 4.23794 13.469 4.10988 13.5008L3.74988 13.9808C3.73421 14.0751 3.73421 14.1714 3.74988 14.2658C3.72954 14.3748 3.72954 14.4867 3.74988 14.5958H4.25988C4.40451 14.5957 4.54345 14.6521 4.64712 14.753C4.75078 14.8538 4.81097 14.9912 4.81488 15.1358V15.5858C4.80103 15.9777 4.66463 16.3554 4.42488 16.6658V22.2758H6.92988V21.2258C6.92969 21.153 6.9442 21.0809 6.97256 21.0139C7.00091 20.9469 7.04252 20.8863 7.09488 20.8358C7.20347 20.7305 7.34863 20.6713 7.49988 20.6708H16.8149C16.9621 20.6708 17.1032 20.7292 17.2073 20.8333C17.3114 20.9374 17.3699 21.0786 17.3699 21.2258L17.3849 22.2908ZM17.8799 19.0358H15.2399C15.0679 18.9901 14.9154 18.8902 14.8049 18.7508C14.7492 18.6996 14.7034 18.6386 14.6699 18.5708C14.4149 18.0158 14.6699 17.4908 15.3599 16.9658C15.7685 16.685 16.206 16.4486 16.6649 16.2608C16.9102 16.1319 17.1798 16.056 17.4562 16.038C17.7327 16.0199 18.0099 16.06 18.2699 16.1558C18.4183 16.2336 18.5485 16.342 18.6519 16.4739C18.7554 16.6058 18.8297 16.7581 18.8699 16.9208L18.9599 17.7458C18.963 17.9457 18.9261 18.1442 18.8514 18.3297C18.7767 18.5152 18.6657 18.6838 18.5249 18.8258C18.3878 18.9482 18.2231 19.0357 18.0449 19.0808L17.8799 19.0358ZM15.8849 17.9108H17.7599C17.7599 17.9108 17.8349 17.7908 17.8499 17.6858L17.7749 17.0558C17.5376 17.0832 17.3053 17.1437 17.0849 17.2358C16.7077 17.381 16.35 17.5725 16.0199 17.8058L15.8849 17.9108ZM8.75988 19.0358H6.28488C6.0975 18.9948 5.92574 18.9012 5.78988 18.7658C5.65532 18.6442 5.54725 18.4962 5.47241 18.3311C5.39757 18.1659 5.35756 17.9871 5.35488 17.8058L5.42988 16.9658C5.45348 16.7853 5.51685 16.6123 5.61542 16.4592C5.71399 16.3062 5.8453 16.1769 5.99988 16.0808C6.25736 15.9853 6.53209 15.9454 6.8061 15.9634C7.0801 15.9815 7.34719 16.0573 7.58988 16.1858C8.03898 16.3681 8.46657 16.5995 8.86488 16.8758C9.59988 17.4158 9.83988 17.9408 9.61488 18.4508L9.46488 18.6308C9.36057 18.7699 9.21274 18.8703 9.04488 18.9158H8.87988L8.75988 19.0358ZM6.64488 17.0858H6.55488L6.46488 17.7758C6.46488 17.7758 6.46488 17.8508 6.53988 17.8808H8.42988L8.27988 17.7608C7.95298 17.535 7.60053 17.3487 7.22988 17.2058C7.0449 17.127 6.84595 17.0862 6.64488 17.0858ZM11.8649 14.8958C9.94027 14.9116 8.02251 14.6643 6.16488 14.1608C6.02853 14.119 5.91213 14.0289 5.83755 13.9074C5.76297 13.7858 5.73535 13.6412 5.75988 13.5008C5.84988 13.1408 5.95488 12.7508 6.10488 12.3158C6.31029 11.581 6.65673 10.8932 7.12488 10.2908C7.18337 10.2196 7.26168 10.1674 7.34988 10.1408C8.18496 9.8574 9.05125 9.67608 9.92988 9.60077C12.1029 9.37613 14.2987 9.54894 16.4099 10.1108C16.4824 10.1308 16.5501 10.165 16.6094 10.2113C16.6686 10.2576 16.718 10.3152 16.7549 10.3808L17.3099 11.2958C17.6895 12.029 17.9238 12.8286 17.9999 13.6508C18.0116 13.7803 17.9775 13.9098 17.9035 14.0167C17.8294 14.1236 17.7202 14.2012 17.5949 14.2358C16.4238 14.5295 15.2292 14.7202 14.0249 14.8058C13.3049 14.8658 12.5849 14.8958 11.8649 14.8958ZM7.00488 13.2158C9.28421 13.7479 11.635 13.9049 13.9649 13.6808C14.9331 13.6122 15.8953 13.4768 16.8449 13.2758C16.7444 12.7527 16.5675 12.2473 16.3199 11.7758L15.9149 11.0708C13.9964 10.607 12.0118 10.4801 10.0499 10.6958C9.31721 10.7686 8.59362 10.9143 7.88988 11.1308C7.57233 11.5897 7.32933 12.096 7.16988 12.6308C7.10988 12.8408 7.04988 13.0358 7.00488 13.2158ZM2.08488 5.88077L1.57488 6.90077C1.55073 6.91 1.52403 6.91 1.49988 6.90077L0.359881 7.06577C0.302196 7.05383 0.242133 7.0653 0.192905 7.09765C0.143676 7.13 0.109315 7.18058 0.0973807 7.23827C0.085446 7.29595 0.0969151 7.35602 0.129265 7.40525C0.161615 7.45447 0.212196 7.48883 0.269881 7.50077L0.989881 8.20577L1.07988 8.29577C1.09087 8.31107 1.09678 8.32943 1.09678 8.34827C1.09678 8.36711 1.09087 8.38547 1.07988 8.40077L0.944881 9.18077V9.52577C0.942265 9.55912 0.948271 9.59258 0.962322 9.62293C0.976373 9.65329 0.997996 9.67952 1.02511 9.6991C1.05223 9.71869 1.08393 9.73097 1.11716 9.73476C1.1504 9.73855 1.18405 9.73374 1.21488 9.72077L2.23488 9.18077H2.32488L3.34488 9.72077C3.37484 9.73518 3.4082 9.74101 3.44127 9.73761C3.47434 9.73422 3.50583 9.72173 3.53223 9.70154C3.55864 9.68134 3.57894 9.65423 3.59088 9.62321C3.60282 9.59218 3.60594 9.55846 3.59988 9.52577L3.41988 8.40077C3.40889 8.38547 3.40298 8.36711 3.40298 8.34827C3.40298 8.32943 3.40889 8.31107 3.41988 8.29577L4.22988 7.50077C4.25617 7.47837 4.27545 7.44888 4.28544 7.41582C4.29542 7.38276 4.29569 7.34753 4.2862 7.31432C4.27671 7.28111 4.25787 7.25134 4.23193 7.22854C4.20599 7.20575 4.17403 7.1909 4.13988 7.18577L3.31488 7.06577L2.99988 6.96077C2.99404 6.9412 2.99404 6.92034 2.99988 6.90077L2.78988 6.48077L2.48988 5.88077C2.48988 5.82706 2.46855 5.77556 2.43057 5.73758C2.39259 5.6996 2.34109 5.67827 2.28738 5.67827C2.23367 5.67827 2.18217 5.6996 2.14419 5.73758C2.10622 5.77556 2.08488 5.82706 2.08488 5.88077ZM5.74488 2.32577L5.24988 3.36077H5.15988L4.03488 3.52577C4.0026 3.53072 3.97227 3.54436 3.94715 3.56523C3.92202 3.58609 3.90305 3.6134 3.89226 3.64423C3.88147 3.67505 3.87927 3.70823 3.8859 3.74022C3.89253 3.7722 3.90773 3.80177 3.92988 3.82577L4.64988 4.54577L4.73988 4.63577C4.74655 4.64983 4.75001 4.6652 4.75001 4.68077C4.75001 4.69634 4.74655 4.71171 4.73988 4.72577L4.60488 5.50577V5.85077C4.59883 5.88346 4.60194 5.91718 4.61388 5.94821C4.62582 5.97923 4.64612 6.00634 4.67253 6.02654C4.69894 6.04673 4.73042 6.05922 4.76349 6.06261C4.79656 6.06601 4.82992 6.06018 4.85988 6.04577L5.87988 5.50577H5.99988L7.00488 6.04577C7.03521 6.06461 7.07045 6.07401 7.10613 6.07277C7.14181 6.07153 7.17632 6.0597 7.20526 6.0388C7.23421 6.0179 7.25628 5.98886 7.26868 5.95538C7.28107 5.92189 7.28323 5.88548 7.27488 5.85077L7.04988 4.78577V4.69577L7.87488 3.88577C7.89703 3.86177 7.91223 3.8322 7.91886 3.80022C7.92549 3.76823 7.92329 3.73505 7.9125 3.70423C7.90171 3.6734 7.88274 3.64609 7.85761 3.62523C7.83249 3.60436 7.80216 3.59072 7.76988 3.58577L6.95988 3.46577H6.62988C6.60528 3.47212 6.57948 3.47212 6.55488 3.46577L6.37488 3.00077L6.07488 2.38577C6.06797 2.35019 6.05048 2.31753 6.02469 2.29206C5.99891 2.26658 5.96604 2.24949 5.93038 2.243C5.89473 2.23652 5.85794 2.24095 5.82484 2.25572C5.79174 2.27049 5.76387 2.2949 5.74488 2.32577ZM21.5849 5.88077L21.0749 6.90077C21.0507 6.91 21.024 6.91 20.9999 6.90077L19.8599 7.06577C19.8257 7.0709 19.7938 7.08575 19.7678 7.10854C19.7419 7.13134 19.723 7.16111 19.7136 7.19432C19.7041 7.22753 19.7043 7.26276 19.7143 7.29582C19.7243 7.32888 19.7436 7.35837 19.7699 7.38077L20.4899 8.08577L20.5799 8.17577C20.5909 8.19107 20.5968 8.20943 20.5968 8.22827C20.5968 8.24711 20.5909 8.26547 20.5799 8.28077L20.4449 9.06077V9.40577C20.4423 9.43912 20.4483 9.47258 20.4623 9.50293C20.4764 9.53329 20.498 9.55952 20.5251 9.5791C20.5522 9.59869 20.5839 9.61097 20.6172 9.61476C20.6504 9.61856 20.684 9.61374 20.7149 9.60077L21.7349 9.06077H21.8249L22.8449 9.60077C22.8748 9.61518 22.9082 9.62101 22.9413 9.61761C22.9743 9.61422 23.0058 9.60173 23.0322 9.58154C23.0586 9.56134 23.0789 9.53423 23.0909 9.50321C23.1028 9.47218 23.1059 9.43846 23.0999 9.40577L22.9199 8.28077C22.9089 8.26547 22.903 8.24711 22.903 8.22827C22.903 8.20943 22.9089 8.19107 22.9199 8.17577L23.7299 7.50077C23.7562 7.47837 23.7755 7.44888 23.7854 7.41582C23.7954 7.38276 23.7957 7.34753 23.7862 7.31432C23.7767 7.28111 23.7579 7.25134 23.7319 7.22854C23.706 7.20575 23.674 7.1909 23.6399 7.18577L22.8149 7.06577H22.4999C22.4757 7.075 22.449 7.075 22.4249 7.06577L22.2149 6.64577L21.9149 6.04577C21.9368 6.00201 21.9404 5.95135 21.9249 5.90493C21.9094 5.85852 21.8761 5.82015 21.8324 5.79827C21.7886 5.77639 21.738 5.77279 21.6915 5.78826C21.6451 5.80373 21.6068 5.83701 21.5849 5.88077ZM17.3099 2.19077L16.7999 3.22577L15.6599 3.39077C15.6252 3.39177 15.5918 3.40367 15.5643 3.42476C15.5367 3.44586 15.5166 3.47508 15.5066 3.50829C15.4966 3.5415 15.4974 3.577 15.5088 3.60975C15.5201 3.64251 15.5415 3.67086 15.5699 3.69077L16.2899 4.41077L16.3799 4.50077V4.59077L16.2599 5.37077V5.71577C16.2538 5.74846 16.2569 5.78218 16.2689 5.81321C16.2808 5.84423 16.3011 5.87134 16.3275 5.89154C16.3539 5.91173 16.3854 5.92422 16.4185 5.92761C16.4516 5.93101 16.4849 5.92518 16.5149 5.91077L17.5349 5.37077C17.5486 5.36287 17.5641 5.35871 17.5799 5.35871C17.5957 5.35871 17.6112 5.36287 17.6249 5.37077L18.6449 5.91077C18.6752 5.92961 18.7105 5.93901 18.7461 5.93777C18.7818 5.93653 18.8163 5.9247 18.8453 5.9038C18.8742 5.8829 18.8963 5.85386 18.9087 5.82038C18.9211 5.78689 18.9232 5.75048 18.9149 5.71577L18.7199 4.59077V4.50077L19.4999 3.75077C19.5283 3.73086 19.5496 3.70251 19.561 3.66975C19.5724 3.637 19.5731 3.6015 19.5632 3.56829C19.5532 3.53508 19.533 3.50586 19.5055 3.48476C19.478 3.46367 19.4445 3.45177 19.4099 3.45077L18.5849 3.33077H18.2699C18.2453 3.33712 18.2195 3.33712 18.1949 3.33077L17.9999 2.80577L17.6999 2.19077C17.6999 2.13905 17.6793 2.08945 17.6428 2.05288C17.6062 2.01631 17.5566 1.99577 17.5049 1.99577C17.4532 1.99577 17.4036 2.01631 17.367 2.05288C17.3304 2.08945 17.3099 2.13905 17.3099 2.19077ZM11.6549 1.24577L11.1599 2.28077C11.1308 2.29106 11.099 2.29106 11.0699 2.28077L9.94488 2.44577C9.9126 2.45072 9.88227 2.46436 9.85715 2.48523C9.83202 2.50609 9.81305 2.5334 9.80226 2.56423C9.79147 2.59505 9.78927 2.62823 9.7959 2.66022C9.80253 2.6922 9.81773 2.72177 9.83988 2.74577L10.5749 3.46577H10.6649C10.6714 3.50047 10.6714 3.53607 10.6649 3.57077L10.4999 4.50077V4.84577C10.4938 4.87846 10.4969 4.91218 10.5089 4.94321C10.5208 4.97423 10.5411 5.00134 10.5675 5.02154C10.5939 5.04173 10.6254 5.05422 10.6585 5.05761C10.6916 5.06101 10.7249 5.05518 10.7549 5.04077L11.7749 4.50077C11.7915 4.49376 11.8093 4.49014 11.8274 4.49014C11.8454 4.49014 11.8633 4.49376 11.8799 4.50077L12.8849 5.04077C12.9152 5.05961 12.9505 5.06901 12.9861 5.06777C13.0218 5.06653 13.0563 5.0547 13.0853 5.0338C13.1142 5.0129 13.1363 4.98386 13.1487 4.95038C13.1611 4.91689 13.1632 4.88048 13.1549 4.84577L12.9599 3.72077C12.9472 3.68691 12.9472 3.64963 12.9599 3.61577L13.7849 2.82077C13.807 2.79677 13.8222 2.7672 13.8289 2.73521C13.8355 2.70323 13.8333 2.67005 13.8225 2.63923C13.8117 2.6084 13.7927 2.58109 13.7676 2.56023C13.7425 2.53936 13.7122 2.52572 13.6799 2.52077L12.8999 2.38577H12.5699C12.5453 2.39212 12.5195 2.39212 12.4949 2.38577L12.2849 1.95077L11.9999 1.24577C11.9888 1.20862 11.966 1.17604 11.935 1.15287C11.9039 1.1297 11.8661 1.11719 11.8274 1.11719C11.7886 1.11719 11.7509 1.1297 11.7198 1.15287C11.6887 1.17604 11.666 1.20862 11.6549 1.24577Z" fill="#56586A"/>
</svg>
