<svg width="24" height="24" viewBox="0 0 24 24" fill="none" xmlns="http://www.w3.org/2000/svg">
<g clip-path="url(#clip0_1_34564)">
<path d="M13.0502 21.7953C10.9837 21.75 8.92539 21.519 6.9002 21.1053C5.7902 20.9253 4.6652 20.3703 3.9002 17.5953C2.8731 14.4417 2.21373 11.1801 1.9352 7.87526C1.927 7.77671 1.93837 7.67751 1.96866 7.58336C1.99895 7.48922 2.04755 7.402 2.11168 7.32671C2.17582 7.25143 2.2542 7.18957 2.34233 7.1447C2.43046 7.09983 2.5266 7.07283 2.6252 7.06526C2.82085 7.05666 3.01235 7.12342 3.16025 7.25178C3.30815 7.38015 3.40119 7.56035 3.4202 7.75526C3.67518 10.9196 4.28913 14.0447 5.2502 17.0703C6.0002 19.5003 6.6752 19.5003 7.1402 19.6353C9.80332 20.2174 12.5376 20.4044 15.2552 20.1903C15.4541 20.1724 15.652 20.2342 15.8053 20.3622C15.9586 20.4902 16.0548 20.6739 16.0727 20.8728C16.0906 21.0717 16.0288 21.2696 15.9008 21.4229C15.7728 21.5762 15.5891 21.6724 15.3902 21.6903C14.6127 21.7675 13.8315 21.8025 13.0502 21.7953ZM21.4952 23.4303C21.7181 23.1946 21.8852 22.9118 21.9838 22.6028C22.0825 22.2938 22.1103 21.9665 22.0652 21.6453V20.8353C21.9452 18.1503 21.8702 16.3353 19.2902 15.2853C17.9136 14.7843 16.4647 14.5107 15.0002 14.4753C13.8518 14.5003 12.7159 14.2318 11.7002 13.6953C10.4852 12.7803 10.2002 11.7903 9.7052 9.79526L9.3002 8.29526C9.22051 7.91463 9.03885 7.56281 8.77463 7.27746C8.51042 6.99211 8.17359 6.78395 7.8002 6.67526C8.59506 6.44537 9.2752 5.92652 9.70699 5.22069C10.1388 4.51485 10.291 3.67305 10.1337 2.8607C9.97644 2.04835 9.52106 1.32418 8.85704 0.830495C8.19302 0.336807 7.36838 0.109292 6.54516 0.192657C5.72194 0.276021 4.95965 0.664237 4.40808 1.28102C3.85652 1.89781 3.55556 2.69857 3.56433 3.52595C3.57311 4.35334 3.89099 5.14753 4.45552 5.75248C5.02004 6.35742 5.79039 6.72938 6.6152 6.79526C6.17606 7.01399 5.8224 7.37293 5.6102 7.81526C5.0702 9.00026 5.1452 12.6603 7.3502 16.0203C7.75803 16.7001 8.32409 17.2713 9.0002 17.6853C10.7961 18.5355 12.7764 18.9222 14.7602 18.8103C15.3918 18.8036 16.0232 18.8386 16.6502 18.9153C17.8352 19.1103 18.0452 20.0103 18.2552 21.4653C18.3902 22.4253 18.5552 23.6403 19.7552 23.8053C19.9398 23.8214 20.1256 23.8214 20.3102 23.8053C20.7372 23.8249 21.1573 23.692 21.4952 23.4303ZM7.5002 8.08526C7.6352 8.08526 7.8152 8.28026 7.9352 8.67026C8.0852 9.22526 8.2202 9.72026 8.3252 10.1703C8.8802 12.2703 9.2402 13.6653 10.8602 14.8953C12.1132 15.6311 13.5477 16.0001 15.0002 15.9603C16.2794 15.9973 17.5449 16.2352 18.7502 16.6653C20.3852 17.3553 20.4902 18.1653 20.6102 20.8953V21.7203C20.6428 21.9233 20.6168 22.1315 20.5352 22.3203C20.3784 22.3653 20.212 22.3653 20.0552 22.3203C19.9193 21.9646 19.8384 21.5903 19.8152 21.2103C19.6202 19.9353 19.3202 17.7903 16.9652 17.4003C16.2641 17.3071 15.5575 17.262 14.8502 17.2653C13.1017 17.3745 11.3536 17.0445 9.7652 16.3053C9.30898 16.0136 8.92855 15.6177 8.6552 15.1503C7.25595 13.2252 6.65899 10.832 6.9902 8.47526C7.1252 8.20526 7.2902 8.08526 7.4102 8.08526H7.5002ZM8.8052 3.46526C8.80501 3.82164 8.6999 4.17007 8.50299 4.46711C8.30609 4.76415 8.02609 4.99664 7.69792 5.1356C7.36976 5.27457 7.00794 5.31384 6.6576 5.24854C6.30726 5.18323 5.9839 5.01623 5.72784 4.76837C5.47178 4.5205 5.29435 4.20274 5.21769 3.85471C5.14103 3.50667 5.16852 3.14377 5.29674 2.81126C5.42496 2.47875 5.64823 2.19134 5.93871 1.98488C6.22919 1.77842 6.57402 1.66205 6.9302 1.65026C7.16785 1.65026 7.40314 1.69731 7.62251 1.7887C7.84188 1.8801 8.04098 2.01403 8.20833 2.18276C8.37567 2.3515 8.50794 2.55171 8.59751 2.77183C8.68708 2.99195 8.73218 3.22763 8.7302 3.46526H8.8052Z" fill="#56586A"/>
</g>
<defs>
<clipPath id="clip0_1_34564">
<rect width="24" height="24" fill="white"/>
</clipPath>
</defs>
</svg>
