<svg width="208" height="41" viewBox="0 0 208 41" fill="none" xmlns="http://www.w3.org/2000/svg">
<rect x="168" y="0.5" width="40" height="40" rx="20" fill="#545454" fill-opacity="0.38"/>
<path d="M196.316 20.008C196.033 15.1747 191.641 11.4497 186.583 12.2831C183.1 12.8581 180.308 15.683 179.766 19.1664C179.45 21.183 179.866 23.0914 180.775 24.6664L180.033 27.4247C179.866 28.0497 180.441 28.6164 181.058 28.4414L183.775 27.6914C185.008 28.4164 186.45 28.833 187.991 28.833C192.691 28.833 196.591 24.6914 196.316 20.008ZM192.066 23.5997C191.991 23.7497 191.9 23.8914 191.783 24.0247C191.575 24.2497 191.35 24.4164 191.1 24.5164C190.85 24.6247 190.575 24.6747 190.283 24.6747C189.858 24.6747 189.4 24.5747 188.925 24.3664C188.441 24.1581 187.966 23.883 187.491 23.5414C187.008 23.1914 186.558 22.7997 186.125 22.3747C185.691 21.9414 185.308 21.483 184.958 21.008C184.616 20.533 184.341 20.058 184.141 19.583C183.941 19.108 183.841 18.6497 183.841 18.2164C183.841 17.9331 183.891 17.6581 183.991 17.4081C184.091 17.1497 184.25 16.9164 184.475 16.7081C184.741 16.4414 185.033 16.3164 185.341 16.3164C185.458 16.3164 185.575 16.3414 185.683 16.3914C185.791 16.4414 185.891 16.5164 185.966 16.6247L186.933 17.9914C187.008 18.0997 187.066 18.1914 187.1 18.283C187.141 18.3747 187.158 18.458 187.158 18.5414C187.158 18.6414 187.125 18.7414 187.066 18.8414C187.008 18.9414 186.933 19.0414 186.833 19.1414L186.516 19.4747C186.466 19.5247 186.45 19.5747 186.45 19.6414C186.45 19.6747 186.458 19.708 186.466 19.7414C186.483 19.7747 186.491 19.7997 186.5 19.8247C186.575 19.9664 186.708 20.1414 186.891 20.358C187.083 20.5747 187.283 20.7997 187.5 21.0164C187.725 21.2414 187.941 21.4414 188.166 21.633C188.383 21.8164 188.566 21.9414 188.708 22.0164C188.733 22.0247 188.758 22.0414 188.783 22.0497C188.816 22.0664 188.85 22.0664 188.891 22.0664C188.966 22.0664 189.016 22.0414 189.066 21.9914L189.383 21.6747C189.491 21.5664 189.591 21.4914 189.683 21.4414C189.783 21.383 189.875 21.3497 189.983 21.3497C190.066 21.3497 190.15 21.3664 190.241 21.408C190.333 21.4497 190.433 21.4997 190.533 21.5747L191.916 22.558C192.025 22.633 192.1 22.7247 192.15 22.8247C192.191 22.9331 192.216 23.033 192.216 23.1497C192.166 23.2914 192.133 23.4497 192.066 23.5997Z" fill="#DADADA"/>
<rect x="112" y="0.5" width="40" height="40" rx="20" fill="#545454" fill-opacity="0.38"/>
<path d="M136.167 13.834H127.834C125.334 13.834 123.667 15.5007 123.667 18.0007V23.0007C123.667 25.5007 125.334 27.1673 127.834 27.1673H136.167C138.667 27.1673 140.334 25.5007 140.334 23.0007V18.0007C140.334 15.5007 138.667 13.834 136.167 13.834ZM133.575 21.359L131.517 22.5923C130.684 23.0923 130 22.709 130 21.734V19.259C130 18.284 130.684 17.9007 131.517 18.4007L133.575 19.634C134.367 20.1173 134.367 20.884 133.575 21.359Z" fill="#DADADA"/>
<rect x="56" width="40" height="40" rx="20" fill="#545454" fill-opacity="0.38"/>
<path d="M84.3337 23.491C84.3337 26.5244 82.5253 28.3327 79.492 28.3327H78.5003C78.042 28.3327 77.667 27.9577 77.667 27.4993V22.691C77.667 22.466 77.8503 22.2744 78.0753 22.2744L79.542 22.2494C79.6587 22.241 79.7587 22.1577 79.7837 22.041L80.0753 20.4494C80.1003 20.2994 79.9837 20.1577 79.8253 20.1577L78.0503 20.1827C77.817 20.1827 77.6337 19.9994 77.6253 19.7744L77.592 17.7327C77.592 17.5993 77.7003 17.4827 77.842 17.4827L79.842 17.4494C79.9836 17.4494 80.092 17.341 80.092 17.1994L80.0587 15.1993C80.0587 15.0577 79.9503 14.9494 79.8087 14.9494L77.5587 14.9827C76.1753 15.0077 75.0753 16.141 75.1003 17.5243L75.142 19.816C75.1503 20.0493 74.967 20.2327 74.7337 20.241L73.7337 20.2577C73.592 20.2577 73.4837 20.366 73.4837 20.5077L73.5087 22.091C73.5087 22.2327 73.617 22.341 73.7587 22.341L74.7587 22.3244C74.992 22.3244 75.1753 22.5077 75.1836 22.7327L75.2586 27.4827C75.267 27.9494 74.892 28.3327 74.4253 28.3327H72.5087C69.4753 28.3327 67.667 26.5243 67.667 23.4827V16.5077C67.667 13.4743 69.4753 11.666 72.5087 11.666H79.492C82.5253 11.666 84.3337 13.4743 84.3337 16.5077V23.491Z" fill="#DADADA"/>
<rect y="0.5" width="40" height="40" rx="20" fill="#545454" fill-opacity="0.38"/>
<path d="M24.167 13.416H15.8337C13.3337 13.416 11.667 14.666 11.667 17.5827V23.416C11.667 26.3327 13.3337 27.5827 15.8337 27.5827H24.167C26.667 27.5827 28.3337 26.3327 28.3337 23.416V17.5827C28.3337 14.666 26.667 13.416 24.167 13.416ZM24.5587 18.491L21.9503 20.5743C21.4003 21.016 20.7003 21.2327 20.0003 21.2327C19.3003 21.2327 18.592 21.016 18.0503 20.5743L15.442 18.491C15.1753 18.2743 15.1337 17.8743 15.342 17.6077C15.5587 17.341 15.9503 17.291 16.217 17.5077L18.8253 19.591C19.4587 20.0993 20.5337 20.0993 21.167 19.591L23.7753 17.5077C24.042 17.291 24.442 17.3327 24.6503 17.6077C24.867 17.8743 24.8253 18.2743 24.5587 18.491Z" fill="#DADADA"/>
</svg>
