<svg width="34" height="34" viewBox="0 0 34 34" fill="none" xmlns="http://www.w3.org/2000/svg">
<rect x="0.5" y="0.5" width="33" height="33" rx="3.5" fill="white"/>
<rect x="0.5" y="0.5" width="33" height="33" rx="3.5" stroke="#DEDEDE"/>
<g clip-path="url(#clip0_1_27692)">
<path d="M25.9375 15.4688H18.2188V14.6562H18.8549L20.8667 11.3031C21.2603 10.647 21.4688 9.89541 21.4688 9.13003C21.4688 6.801 19.574 4.90625 17.245 4.90625H16.7554C14.426 4.90625 12.5312 6.801 12.5312 9.13003C12.5312 9.89541 12.7397 10.647 13.1329 11.3035L15.1451 14.6562H15.7812V15.4688H8.0625C7.39056 15.4688 6.84375 16.0156 6.84375 16.6875V28.875C6.84375 29.5469 7.39056 30.0938 8.0625 30.0938H25.9375C26.6094 30.0938 27.1562 29.5469 27.1562 28.875V16.6875C27.1562 16.0156 26.6094 15.4688 25.9375 15.4688ZM19.0312 29.2812H17.4062V25.2188H19.8438V22.7812H21.4688V19.5312H18.2188V17.9062H24.7188V21.9688H23.0938V24.4062H21.4688V26.8438H19.0312V29.2812ZM20.6562 9.13003C20.6562 9.40263 20.6181 9.67156 20.5543 9.934C19.1625 9.39491 18.2188 8.04778 18.2188 6.53125V5.86216C19.6264 6.28262 20.6562 7.5875 20.6562 9.13003ZM15.7812 5.86216V6.53125C15.7812 8.04778 14.8375 9.39491 13.4457 9.934C13.3819 9.67156 13.3438 9.40263 13.3438 9.13003C13.3438 7.5875 14.3736 6.28262 15.7812 5.86216ZM13.8296 10.8854C13.7927 10.8237 13.765 10.7579 13.7321 10.6945C15.4376 10.0364 16.5938 8.38781 16.5938 6.53125V5.72688C16.6478 5.72444 16.7006 5.71875 16.755 5.71875H17.2446C17.2994 5.71875 17.3522 5.72444 17.4062 5.72688V6.53125C17.4062 8.38781 18.5624 10.0364 20.2679 10.6941C20.235 10.7575 20.2073 10.8233 20.1704 10.885L18.3951 13.8438H15.6053L13.8296 10.8854ZM17.4062 14.6562V19.5312H16.5938V14.6562H17.4062ZM15.7812 19.5312H14.1562V17.9062H15.7812V19.5312ZM7.65625 28.875V16.6875C7.65625 16.4637 7.83825 16.2812 8.0625 16.2812H15.7812V17.0938H13.3438V20.3438H20.6562V21.9688H19.0312V24.4062H16.5938V29.2812H8.0625C7.83825 29.2812 7.65625 29.0993 7.65625 28.875ZM26.3438 28.875C26.3438 29.0993 26.1618 29.2812 25.9375 29.2812H19.8438V27.6562H22.2812V25.2188H23.9062V22.7812H25.5312V17.0938H18.2188V16.2812H25.9375C26.1618 16.2812 26.3438 16.4637 26.3438 16.6875V28.875Z" fill="#544F57"/>
<path d="M8.46875 20.3438H12.5312V17.0938H8.46875V20.3438ZM9.28125 17.9062H11.7188V19.5312H9.28125V17.9062Z" fill="#544F57"/>
<path d="M8.46875 28.4688H11.7188V21.1562H8.46875V28.4688ZM9.28125 27.6562V26.8438H10.9062V27.6562H9.28125ZM10.9062 25.2188V26.0312H9.28125V25.2188H10.9062ZM9.28125 24.4062V23.5938H10.9062V24.4062H9.28125ZM10.9062 21.9688V22.7812H9.28125V21.9688H10.9062Z" fill="#544F57"/>
</g>
<defs>
<clipPath id="clip0_1_27692">
<rect width="26" height="26" fill="white" transform="translate(4 4.5)"/>
</clipPath>
</defs>
</svg>
