<svg width="40" height="40" viewBox="0 0 40 40" fill="none" xmlns="http://www.w3.org/2000/svg">
<rect width="40" height="40" rx="20" fill="#5BB55F"/>
<path d="M19.3833 12.3271C23.6208 12.3271 27.0559 15.7615 27.0562 19.999C27.0562 24.2367 23.621 27.6719 19.3833 27.6719C18.1594 27.6736 16.9542 27.3815 15.8687 26.8213L15.6528 26.7061L15.4136 26.5664L15.2632 26.4785L15.0962 26.5273L12.647 27.248C12.5797 27.2679 12.5083 27.2703 12.4399 27.2549C12.3715 27.2395 12.3076 27.2069 12.2554 27.1602C12.2031 27.1134 12.164 27.0536 12.1411 26.9873C12.1186 26.9221 12.1121 26.8522 12.1235 26.7842L12.1411 26.7158L12.856 24.2871L12.9058 24.1172L12.814 23.9648C12.0906 22.7691 11.7096 21.3975 11.7114 20V19.999C11.7117 15.7617 15.146 12.3274 19.3833 12.3271ZM19.3843 13.1348C18.1553 13.1345 16.9482 13.4637 15.8901 14.0889C14.8319 14.7142 13.9603 15.6126 13.3677 16.6895C12.7751 17.7662 12.4831 18.9825 12.521 20.2109C12.5589 21.4394 12.9257 22.6356 13.5835 23.6738C13.6908 23.8429 13.7358 24.0495 13.7017 24.252L13.6802 24.3457L13.3237 25.5576L13.1157 26.2676L13.8257 26.0596L15.0376 25.7031H15.0386C15.2704 25.6346 15.5135 25.675 15.7085 25.7988L15.7095 25.7998C16.609 26.3693 17.6288 26.7215 18.688 26.8291C19.7473 26.9367 20.8172 26.797 21.813 26.4199C22.8086 26.0429 23.703 25.4393 24.4253 24.6572C25.1477 23.8749 25.6784 22.9347 25.9751 21.9121C26.2717 20.8896 26.3268 19.812 26.1353 18.7646C25.9437 17.7172 25.5109 16.7284 24.8716 15.877C24.2323 15.0257 23.4039 14.3344 22.4517 13.8584C21.4993 13.3824 20.4489 13.1351 19.3843 13.1348ZM17.2837 16.4688C17.3111 16.4718 17.3374 16.482 17.3599 16.498V16.4971C17.7111 16.754 18.002 17.108 18.271 17.4844V17.4854L18.5337 17.8652V17.8662L18.6577 18.0479L18.6587 18.0488C18.6799 18.0796 18.69 18.117 18.688 18.1543C18.6861 18.1901 18.6715 18.2232 18.6489 18.251L18.6245 18.2764L17.9067 18.8096C17.7941 18.8931 17.7146 19.0138 17.6831 19.1504C17.6595 19.253 17.6638 19.3597 17.6948 19.459L17.7349 19.5557L17.7397 19.5645C17.9197 19.89 18.2406 20.3825 18.6206 20.7627L18.6216 20.7637C19.0015 21.1426 19.5137 21.4827 19.8569 21.6797L19.8589 21.6807C20.0909 21.8124 20.3645 21.766 20.5435 21.6045L20.564 21.5859L20.5815 21.5654L20.6118 21.5293L20.6274 21.5107L20.6411 21.4902L21.1128 20.7715C21.1391 20.7364 21.1779 20.7121 21.2212 20.7051C21.2427 20.7016 21.2647 20.7023 21.2856 20.707L21.3452 20.7334L21.7788 21.0361V21.0371C22.1529 21.3038 22.4915 21.572 22.7681 21.8877L22.8833 22.0264C22.8995 22.0484 22.9101 22.0744 22.9136 22.1016C22.9172 22.1299 22.913 22.1592 22.9019 22.1855C22.634 22.8105 21.9615 23.311 21.3237 23.292L21.2036 23.2852L21.0562 23.2715L20.9976 23.2637H20.9985L20.8052 23.2314C20.1292 23.1026 19.0136 22.7125 17.8423 21.542C16.6712 20.3702 16.2815 19.2541 16.1528 18.5781L16.1216 18.3994L16.103 18.2363L16.0942 18.1133L16.0913 18.0615C16.0717 17.4228 16.575 16.75 17.2017 16.4814C17.2272 16.4705 17.256 16.4657 17.2837 16.4688Z" fill="white" stroke="white" stroke-width="0.807664"/>
</svg>
