<svg width="34" height="34" viewBox="0 0 34 34" fill="none" xmlns="http://www.w3.org/2000/svg">
<g clip-path="url(#clip0_1_27670)">
<rect width="34" height="34" rx="4" fill="white"/>
<path d="M27.0138 0.46582H6.98637C3.38517 0.46582 0.46582 3.38517 0.46582 6.98637V27.0138C0.46582 30.615 3.38517 33.5343 6.98637 33.5343H27.0138C30.615 33.5343 33.5343 30.615 33.5343 27.0138V6.98637C33.5343 3.38517 30.615 0.46582 27.0138 0.46582Z" fill="white"/>
<path d="M20.7491 19.2109H12.8771C11.4381 19.2109 10.2715 20.3775 10.2715 21.8166V24.6667C10.2715 26.1058 11.4381 27.2724 12.8771 27.2724H20.7491C22.1881 27.2724 23.3548 26.1058 23.3548 24.6667V21.8166C23.3548 20.3775 22.1882 19.2109 20.7491 19.2109Z" fill="#544F57"/>
<path d="M19.7101 18.8662H13.9156C12.8563 18.8662 11.9976 19.7249 11.9976 20.7842V22.8822C11.9976 23.9414 12.8563 24.8002 13.9156 24.8002H19.7101C20.7694 24.8002 21.6281 23.9414 21.6281 22.8822V20.7842C21.6281 19.7249 20.7694 18.8662 19.7101 18.8662Z" fill="#665E66"/>
<path d="M18.8641 18.5205H14.7617C14.0118 18.5205 13.4038 19.1285 13.4038 19.8784V21.3637C13.4038 22.1137 14.0118 22.7216 14.7617 22.7216H18.8642C19.6141 22.7216 20.2221 22.1137 20.2221 21.3637V19.8784C20.2221 19.1285 19.6141 18.5205 18.8641 18.5205Z" fill="#756E78"/>
<path d="M18.3543 11.7725V19.9789C18.3543 20.8298 17.6645 21.52 16.8131 21.52C15.9617 21.52 15.272 20.8298 15.272 19.9789V11.7725H18.3543Z" fill="#E2DFE2"/>
<path d="M17.3697 21.4165C17.1968 21.4833 17.0093 21.52 16.8126 21.52C15.9613 21.52 15.2715 20.8298 15.2715 19.9789V11.7725H16.3851V19.9789C16.3851 20.6336 16.7934 21.1931 17.3697 21.4165Z" fill="#CBCBCB"/>
<path d="M18.3543 11.7725V14.1028C17.8875 14.3257 17.3647 14.4506 16.8131 14.4506C16.2615 14.4506 15.7388 14.3257 15.272 14.1028V11.7725H18.3543Z" fill="#CBCBCB"/>
<path d="M16.8131 13.6887C18.7925 13.6887 20.3972 12.084 20.3972 10.1046C20.3972 8.12516 18.7925 6.52051 16.8131 6.52051C14.8337 6.52051 13.229 8.12516 13.229 10.1046C13.229 12.084 14.8337 13.6887 16.8131 13.6887Z" fill="#555555"/>
<path d="M17.7327 13.5691C17.4391 13.6471 17.131 13.6885 16.8132 13.6885C14.8336 13.6885 13.229 12.0838 13.229 10.1047C13.229 8.12513 14.8336 6.52051 16.8132 6.52051C17.131 6.52051 17.4391 6.56185 17.7327 6.63991C16.1986 7.04534 15.0679 8.44286 15.0679 10.1047C15.0679 11.7661 16.1986 13.1636 17.7327 13.5691Z" fill="#555555"/>
<path d="M18.7907 8.74902C18.6177 8.74902 18.4776 8.88922 18.4776 9.06217V9.79128H17.7852V9.06217C17.7852 8.88922 17.6451 8.74902 17.4721 8.74902C17.2992 8.74902 17.159 8.88922 17.159 9.06217V9.79128H16.4666V9.06217C16.4666 8.88922 16.3264 8.74902 16.1535 8.74902C15.9805 8.74902 15.8403 8.88922 15.8403 9.06217V9.79128H15.148V9.06217C15.148 8.88922 15.0078 8.74902 14.8349 8.74902C14.6619 8.74902 14.5217 8.88922 14.5217 9.06217V10.1045C14.5217 10.2774 14.6619 10.4176 14.8349 10.4176H15.8404V11.1467C15.8404 11.3197 15.9806 11.4599 16.1535 11.4599C16.3265 11.4599 16.4667 11.3197 16.4667 11.1467V10.4176H17.159V11.1467C17.159 11.3197 17.2992 11.4599 17.4721 11.4599C17.6451 11.4599 17.7853 11.3197 17.7853 11.1467V10.4176H18.4776V11.1467C18.4776 11.3197 18.6178 11.4599 18.7907 11.4599C18.9637 11.4599 19.1039 11.3197 19.1039 11.1467V9.06217C19.1038 8.88922 18.9637 8.74902 18.7907 8.74902Z" fill="#E2DFE2"/>
</g>
<rect x="0.5" y="0.5" width="33" height="33" rx="3.5" stroke="#DEDEDE"/>
<defs>
<clipPath id="clip0_1_27670">
<rect width="34" height="34" rx="4" fill="white"/>
</clipPath>
</defs>
</svg>
