<svg width="16" height="16" viewBox="0 0 16 16" fill="none" xmlns="http://www.w3.org/2000/svg">
<g clip-path="url(#clip0_1_27926)">
<path d="M1.37938 3.06642C1.91271 0.759777 5.38602 0.759777 5.91268 3.06642C6.22601 4.41975 5.36602 5.5664 4.61936 6.27973C4.07269 6.79973 3.2127 6.79306 2.66604 6.27973C1.92604 5.5664 1.06605 4.41975 1.37938 3.06642Z" stroke="#242424" stroke-width="0.838535"/>
<path d="M10.047 11.0664C10.5804 8.75978 14.0737 8.75978 14.607 11.0664C14.9203 12.4197 14.0603 13.5664 13.307 14.2797C12.7604 14.7997 11.8937 14.7931 11.347 14.2797C10.5937 13.5664 9.73371 12.4197 10.047 11.0664Z" stroke="#242424" stroke-width="0.838535"/>
<path d="M8.00025 3.33333H9.7869C11.0202 3.33333 11.5936 4.85999 10.6669 5.67331L5.34027 10.3333C4.41362 11.1399 4.98694 12.6666 6.2136 12.6666H8.00025" stroke="#242424" stroke-width="0.838535" stroke-linecap="round" stroke-linejoin="round"/>
<path d="M3.65751 3.66666H3.66522" stroke="#242424" stroke-width="0.838535" stroke-linecap="round" stroke-linejoin="round"/>
<path d="M12.3242 11.6667H12.3319" stroke="#242424" stroke-width="0.838535" stroke-linecap="round" stroke-linejoin="round"/>
</g>
<defs>
<clipPath id="clip0_1_27926">
<rect width="15.0936" height="15.0936" fill="white" transform="scale(1.06004)"/>
</clipPath>
</defs>
</svg>
