<svg width="38" height="38" viewBox="0 0 38 38" fill="none" xmlns="http://www.w3.org/2000/svg">
<rect width="38" height="38" rx="4" fill="#DD2230"/>
<path d="M32 19.0002C32 19.5523 31.9656 20.0961 31.8988 20.6299C31.8231 21.2342 31.7062 21.8258 31.5505 22.4015C30.5596 26.067 28.0054 29.0905 24.6476 30.7126C24.4911 30.7883 24.3327 30.8609 24.1724 30.9304L20.6687 27.4266C21.0518 27.3511 21.4258 27.2502 21.7888 27.1256C24.1459 26.317 26.0399 24.5113 26.9673 22.2123C24.6116 22.4177 22.388 23.0842 20.3871 24.1212C19.9519 24.3467 19.4759 24.4596 18.9999 24.4596C18.5238 24.4596 18.048 24.3469 17.6127 24.1214C15.6118 23.0844 13.3879 22.4179 11.0321 22.2124C11.9598 24.5115 13.8539 26.3171 16.2109 27.1257C16.5733 27.2502 16.9462 27.3509 17.3286 27.4264L13.8254 30.9297C13.6659 30.8606 13.5081 30.7883 13.3521 30.7128C9.99436 29.0907 7.44037 26.0673 6.44925 22.4018C6.2936 21.8261 6.17664 21.2345 6.10096 20.63C6.03417 20.0961 5.99976 19.5523 5.99976 19.0004C5.99976 13.6597 9.22038 9.07121 13.8253 7.07117L17.3286 10.5745C13.9797 11.235 11.3298 13.8422 10.6074 17.1685C13.1052 15.8224 15.9633 15.0583 18.9997 15.0583C22.0362 15.0583 24.8944 15.8222 27.3924 17.1687C26.6696 13.8417 24.0185 11.2339 20.6684 10.5742L24.1722 7.07031C28.7787 9.06984 32 13.659 32 19.0002Z" fill="white"/>
</svg>
