<svg width="24" height="72" viewBox="0 0 24 72" fill="none" xmlns="http://www.w3.org/2000/svg">
<path d="M13.26 3.59924L5.04997 12.2892C4.73997 12.6192 4.43997 13.2692 4.37997 13.7192L4.00997 16.9592C3.87997 18.1292 4.71997 18.9292 5.87997 18.7292L9.09997 18.1792C9.54997 18.0992 10.18 17.7692 10.49 17.4292L18.7 8.73924C20.12 7.23924 20.76 5.52924 18.55 3.43924C16.35 1.36924 14.68 2.09924 13.26 3.59924Z" stroke="#7D7D7D" stroke-width="1.5" stroke-miterlimit="10" stroke-linecap="round" stroke-linejoin="round"/>
<path d="M11.89 5.05078C12.32 7.81078 14.56 9.92078 17.34 10.2008" stroke="#7D7D7D" stroke-width="1.5" stroke-miterlimit="10" stroke-linecap="round" stroke-linejoin="round"/>
<path d="M3 22H21" stroke="#7D7D7D" stroke-width="1.5" stroke-miterlimit="10" stroke-linecap="round" stroke-linejoin="round"/>
<path d="M11.5 69C16.7467 69 21 64.7467 21 59.5C21 54.2533 16.7467 50 11.5 50C6.25329 50 2 54.2533 2 59.5C2 64.7467 6.25329 69 11.5 69Z" stroke="#7D7D7D" stroke-width="1.5" stroke-linecap="round" stroke-linejoin="round"/>
<path d="M22 70L20 68" stroke="#7D7D7D" stroke-width="1.5" stroke-linecap="round" stroke-linejoin="round"/>
</svg>
